<?xml version="1.0" encoding="utf-8"?>
<svg viewBox="0 0 50 50" width="50px" height="50px" xmlns="http://www.w3.org/2000/svg">
  <rect height="50" width="50" fill="none"/>
  <path d="M38.462,47.23H9.615  c0,0-7.692,0.092-7.692-7.746c0-7.84,0-35.715,0-35.715" stroke-linejoin="round" stroke-miterlimit="10" stroke-width="2" style="fill: none; stroke: rgb(249, 38, 38);"/>
  <path d="M48.077,39.539  c0,7.695-6.692,7.691-6.692,7.691s-7.692-0.027-7.692-7.746s0-35.715,0-35.715H1.923c0,0,0,27.875,0,35.715  c0,7.838,7.692,7.746,7.692,7.746h30.77" stroke-linejoin="round" stroke-miterlimit="10" stroke-width="2" style="fill: none; stroke: rgb(249, 38, 38);"/>
  <path d="  M40.385,38.615v-24.23c0,0,0.09-3.846,3.846-3.846s3.847,3.9,3.847,3.9v25.1" stroke-linecap="round" stroke-linejoin="round" stroke-miterlimit="10" stroke-width="2" style="fill: none; stroke: rgb(249, 38, 38);"/>
  <line stroke-linejoin="round" stroke-miterlimit="10" stroke-width="2" x1="44.23" x2="34.756" y1="10.495" y2="10.495" style="fill: none; stroke: rgb(249, 38, 38);"/>
  <line stroke-linecap="round" stroke-linejoin="round" stroke-miterlimit="10" stroke-width="2" x1="7.692" x2="14.462" y1="28" y2="28" style="fill: none; stroke: rgb(249, 38, 38);"/>
  <line stroke-linecap="round" stroke-linejoin="round" stroke-miterlimit="10" stroke-width="2" x1="7.692" x2="14.462" y1="24" y2="24" style="fill: none; stroke: rgb(249, 38, 38);"/>
  <line stroke-linecap="round" stroke-linejoin="round" stroke-miterlimit="10" stroke-width="2" x1="7.692" x2="14.462" y1="32" y2="32" style="fill: none; stroke: rgb(249, 38, 38);"/>
  <line stroke-linecap="round" stroke-linejoin="round" stroke-miterlimit="10" stroke-width="2" x1="7.692" x2="14.462" y1="36" y2="36" style="fill: none; stroke: rgb(249, 38, 38);"/>
  <line stroke-linecap="round" stroke-linejoin="round" stroke-miterlimit="10" stroke-width="2" x1="7.692" x2="14.462" y1="40" y2="40" style="fill: none; stroke: rgb(249, 38, 38);"/>
  <line stroke-linecap="round" stroke-linejoin="round" stroke-miterlimit="10" stroke-width="2" x1="19.23" x2="26.923" y1="28" y2="28" style="fill: none; stroke: rgb(249, 38, 38);"/>
  <line stroke-linecap="round" stroke-linejoin="round" stroke-miterlimit="10" stroke-width="2" x1="19.23" x2="26.923" y1="24" y2="24" style="fill: none; stroke: rgb(249, 38, 38);"/>
  <line stroke-linecap="round" stroke-linejoin="round" stroke-miterlimit="10" stroke-width="2" x1="7.23" x2="26.923" y1="16" y2="16" style="fill: none; stroke: rgb(249, 38, 38);"/>
  <line stroke-linecap="round" stroke-linejoin="round" stroke-miterlimit="10" stroke-width="2" x1="7.23" x2="26.923" y1="12" y2="12" style="fill: none; stroke: rgb(249, 38, 38);"/>
  <line stroke-linecap="round" stroke-linejoin="round" stroke-miterlimit="10" stroke-width="2" x1="19.23" x2="26.923" y1="31.77" y2="31.77" style="fill: none; stroke: rgb(249, 38, 38);"/>
  <line stroke-linecap="round" stroke-linejoin="round" stroke-miterlimit="10" stroke-width="2" x1="19.23" x2="26.923" y1="35.77" y2="35.77" style="fill: none; stroke: rgb(249, 38, 38);"/>
  <line stroke-linecap="round" stroke-linejoin="round" stroke-miterlimit="10" stroke-width="2" x1="19.23" x2="26.923" y1="39.539" y2="39.539" style="fill: none; stroke: rgb(249, 38, 38);"/>
</svg>