<?xml version="1.0" encoding="utf-8"?>
<svg viewBox="74.705 300.78 850.587 234.984" width="850.587" height="234.984" xmlns="http://www.w3.org/2000/svg">
  <defs>
    <style>.cls-1,.cls-2{fill:#d02c2f;}.cls-1{fill-rule:evenodd;}.cls-3{fill:#ffcd00;}.cls-4{fill:#00953b;}.cls-5{fill:#231f20;}</style>
  </defs>
  <path class="cls-1" d="M235.92,418.24a43.44,43.44,0,0,1-15.55,33.36,36.86,36.86,0,0,0-18.82-11.74,18.69,18.69,0,1,0-18.35,0,37,37,0,0,0-18.83,11.74,43.55,43.55,0,1,1,71.55-33.36Z"/>
  <path class="cls-2" d="M266.09,510c-3.14,2.23-6.12,4.46-9.21,6.52a105.76,105.76,0,0,1-17.34,9.35,5.23,5.23,0,0,0-.92.64l-4,1.62a6.36,6.36,0,0,0-1.09.18,117.64,117.64,0,0,1-119.88-22.72l-.73-.67,36.52-43.74q2.26,2.19,4.65,4.11a61.27,61.27,0,0,0,35.73,13.61c-.67,3.16-1.3,6.27-2,9.35-.08.36-.5.66-.8.94a8.88,8.88,0,0,0-1.72,11.16,9,9,0,0,0,10.19,3.84,8.86,8.86,0,0,0,3.67-14.57,2.39,2.39,0,0,1-.74-1.11c-.49-3.23-.91-6.45-1.33-9.57,3.15-.57,6.21-1,9.21-1.69a58.11,58.11,0,0,0,19.47-8.36q1.93-1.28,3.78-2.71c1.4-1.09,1.39-1.1,2.5.33l32.88,41.9C265.29,508.85,265.62,509.33,266.09,510Z"/>
  <path class="cls-3" d="M253,421.17a60.61,60.61,0,0,0-15.91-44.06c1.3-1.09,2.23-2.34,4.19-2.56a8.62,8.62,0,0,0,7.34-9.69,8.8,8.8,0,0,0-17.52,1.63c.12,2.06.12,2.06-1.14,4a61.38,61.38,0,0,0-36.09-13q1.19-28.44,2.37-56.71c38.05.55,82,23,102.69,67.73a117.16,117.16,0,0,1-21.48,130.78l-40.91-39.4a61.58,61.58,0,0,0,15.25-29.29l4.68,1.25c2.21.6,4.45,1.14,6.64,1.81a3.42,3.42,0,0,1,1.68,1.16,11.35,11.35,0,1,0,1.83-14.87,3.17,3.17,0,0,1-2.25.88C260.65,420.89,256.93,421,253,421.17Z"/>
  <path class="cls-4" d="M102.63,493.91c-20.06-22.46-37.5-65.65-21.94-112.52a117.2,117.2,0,0,1,100.84-80.23c.23,2.3.47,4.6.69,6.91q2.34,24,4.7,48.07c.12,1.23-.2,1.58-1.41,1.71A60.24,60.24,0,0,0,154.13,371c-.26.21-.52.4-.94.72-1.43-3-2.85-5.84-4.19-8.74-.14-.28,0-.74.15-1.08a7.94,7.94,0,0,0-2.65-8.92,8.07,8.07,0,1,0-6.14,14.33,3.12,3.12,0,0,1,1.74,1c2,2.4,3.8,4.89,5.72,7.31.37.49.48.8,0,1.29A60.82,60.82,0,0,0,132,411.75c0,.08-.06.16-.13.34-3.23-.53-6.47-1.06-9.71-1.63a11.76,11.76,0,1,0-.58,10.74c3.11-.4,6.23-.73,9.33-1.09a4.56,4.56,0,0,1,.64,0c.32,2.71.56,5.4,1,8.06A59.23,59.23,0,0,0,144,454.91c.52.69.56,1-.1,1.66q-20.43,18.45-40.8,37C103,493.67,102.79,493.79,102.63,493.91Z"/>
  <path class="cls-5" d="M389.2,376.49a18.26,18.26,0,0,1,7.16-1.21,12.63,12.63,0,0,1,7.25,2.07,12.47,12.47,0,0,1,4.62,5.65l.56,1.31h9.85l-1-2.88a22.39,22.39,0,0,0-8.19-11.09A23.89,23.89,0,0,0,395.2,366c-7.17,0-13.08,2.5-17.58,7.45-4.2,4.69-6.32,10.66-6.32,17.75s2.12,13.06,6.33,17.76c4.49,4.93,10.4,7.43,17.57,7.43A23.9,23.9,0,0,0,409.43,412a22.37,22.37,0,0,0,8.2-11.1l1-2.88h-9.85l-.56,1.31a12.44,12.44,0,0,1-11.87,7.73c-5.25,0-9.09-1.47-11.77-4.51s-3.87-6.65-3.87-11.4,1.26-8.48,3.87-11.41A13.18,13.18,0,0,1,389.2,376.49Z" style="fill: rgb(255, 255, 255);"/>
  <path class="cls-5" d="M450.3,366a24.05,24.05,0,0,0-18.06,7.39,26.35,26.35,0,0,0,0,35.61,24.05,24.05,0,0,0,18.07,7.39c7.29,0,13.37-2.48,18.07-7.38a26.36,26.36,0,0,0,0-35.62A24.1,24.1,0,0,0,450.3,366Zm0,41.11c-4.77,0-8.5-1.49-11.4-4.56a17.58,17.58,0,0,1,0-22.71c2.9-3.06,6.64-4.55,11.4-4.55s8.51,1.49,11.41,4.55a17.54,17.54,0,0,1,0,22.71C458.8,405.61,455.07,407.1,450.3,407.1Z" style="fill: rgb(255, 255, 255);"/>
  <path class="cls-5" d="M519.33,396.22c5.42-2.37,8.29-7,8.29-13.46,0-5-1.64-9-4.85-11.85s-7.36-4.38-12.47-4.38H486.6v49.31H496V398.58h12.27l10.87,17.26H530.4L518,396.78C518.43,396.61,518.88,396.42,519.33,396.22ZM496,375.68h13.67a9.4,9.4,0,0,1,6.34,2,6.27,6.27,0,0,1,2.16,5.11,6.4,6.4,0,0,1-.7,3.23c-1.41,2.32-4,3.44-8.07,3.44H496Z" style="fill: rgb(255, 255, 255);"/>
  <path class="cls-5" d="M561.67,366a24.06,24.06,0,0,0-18.07,7.39,26.35,26.35,0,0,0,0,35.61c4.71,4.91,10.79,7.39,18.08,7.39S575,413.9,579.73,409a26.36,26.36,0,0,0,0-35.62A24.09,24.09,0,0,0,561.67,366Zm0,41.11c-4.77,0-8.51-1.49-11.41-4.56a17.58,17.58,0,0,1,0-22.71c2.91-3.06,6.64-4.55,11.41-4.55s8.5,1.49,11.4,4.55a17.54,17.54,0,0,1,0,22.71C570.17,405.61,566.44,407.1,561.67,407.1Z" style="fill: rgb(255, 255, 255);"/>
  <polygon class="cls-5" points="631.66 399.94 607.13 366.53 597.96 366.53 597.96 415.84 607.38 415.84 607.38 382.31 631.91 415.84 641.08 415.84 641.08 366.53 631.66 366.53 631.66 399.94" style="fill: rgb(255, 255, 255);"/>
  <path class="cls-5" d="M669.76,366.53l-20.93,49.31h10.34l5.51-13h19.41l5.51,13h10.34L679,366.53Zm-1.3,27.25,5.93-14.17,5.92,14.17Z" style="fill: rgb(255, 255, 255);"/>
  <polygon class="cls-5" points="722.76 402.04 708.67 366.53 698.42 366.53 718.38 415.84 727.14 415.84 747.1 366.53 736.85 366.53 722.76 402.04" style="fill: rgb(255, 255, 255);"/>
  <rect class="cls-5" x="754.91" y="366.53" width="9.42" height="49.31" style="fill: rgb(255, 255, 255);"/>
  <path class="cls-5" d="M811.22,396.22c5.42-2.37,8.28-7,8.28-13.46,0-5-1.63-9-4.84-11.85s-7.36-4.38-12.47-4.38h-23.7v49.31h9.42V398.58h12.27l10.87,17.26h11.23l-12.42-19.06C810.31,396.61,810.77,396.42,811.22,396.22Zm-23.31-20.54h13.67a9.42,9.42,0,0,1,6.34,2,6.27,6.27,0,0,1,2.16,5.11,6.4,6.4,0,0,1-.7,3.23c-1.41,2.32-4,3.44-8.07,3.44h-13.4Z" style="fill: rgb(255, 255, 255);"/>
  <path class="cls-5" d="M864,394.45c0,4.3-1.2,7.49-3.64,9.75a11.72,11.72,0,0,1-8.26,2.9,11.47,11.47,0,0,1-8.17-2.88c-2.47-2.31-3.67-5.51-3.67-9.77V366.53h-9.42v27.78c0,6.54,2,11.91,6,15.95a20.54,20.54,0,0,0,15.31,6.12c6.24,0,11.41-2.06,15.37-6.12s6-9.41,6-15.95V366.53H864Z" style="fill: rgb(255, 255, 255);"/>
  <path class="cls-5" d="M919.48,391.07a22.93,22.93,0,0,0-5.46-2.58c-1.89-.63-3.86-1.19-5.83-1.68l-5.68-1.39a33.85,33.85,0,0,1-4.66-1.47,8.7,8.7,0,0,1-2.8-1.72,1.72,1.72,0,0,1-.67-1.27,7.27,7.27,0,0,1,.33-2.22,3.48,3.48,0,0,1,1.1-1.51,8.54,8.54,0,0,1,2.9-1.49,16.56,16.56,0,0,1,5.09-.67,18.74,18.74,0,0,1,5.16.6c4.6,1.3,5.42,3.81,5.64,5.59l.23,1.9h9.42l-.11-2.27a13.91,13.91,0,0,0-5.32-10.45c-3.52-2.95-8.44-4.45-14.65-4.45s-10.88,1.33-14.08,4a13.22,13.22,0,0,0-5,10.64,10.44,10.44,0,0,0,2.91,7.68,19.26,19.26,0,0,0,6.43,4.14,48.77,48.77,0,0,0,7.75,2.38c2.59.58,5,1.21,7.25,1.87a18.07,18.07,0,0,1,5.1,2.29,2.78,2.78,0,0,1,1.34,2.5c0,1.58,0,5.78-10.47,5.78a17.47,17.47,0,0,1-8.63-1.81,6.16,6.16,0,0,1-3.41-5.32l-.12-2h-9.72l.22,2.37c.47,4.93,2.43,8.82,5.84,11.54,3.68,2.93,9,4.41,15.75,4.41,6,0,10.82-1.25,14.32-3.72,3.75-2.64,5.64-6.48,5.64-11.42A11.51,11.51,0,0,0,919.48,391.07Z" style="fill: rgb(255, 255, 255);"/>
  <path class="cls-5" d="M387.67,458.64a9.32,9.32,0,0,0,8.88-5.79H400a12.94,12.94,0,0,1-4.75,6.45,13.91,13.91,0,0,1-8.31,2.52,13.15,13.15,0,0,1-10.23-4.31,16.59,16.59,0,0,1,0-20.89,13.15,13.15,0,0,1,10.23-4.31,13.91,13.91,0,0,1,8.31,2.52,13,13,0,0,1,4.75,6.44h-3.44a9.36,9.36,0,0,0-8.88-5.79,12.76,12.76,0,0,0-5.14.9,9.58,9.58,0,0,0-3.44,2.46,13.37,13.37,0,0,0,0,16.45C381.06,457.53,383.92,458.64,387.67,458.64Z" style="fill: rgb(255, 255, 255);"/>
  <path class="cls-5" d="M417.44,432.31A14,14,0,0,1,428,436.62a15.49,15.49,0,0,1,0,20.89,15.14,15.14,0,0,1-21.16,0,15.52,15.52,0,0,1,0-20.89A14,14,0,0,1,417.44,432.31Zm0,26.33a10.92,10.92,0,0,0,8.32-3.35,12.62,12.62,0,0,0,0-16.45,12,12,0,0,0-16.63,0,12.62,12.62,0,0,0,0,16.45A10.91,10.91,0,0,0,417.44,458.64Z" style="fill: rgb(255, 255, 255);"/>
  <path class="cls-5" d="M462.15,432.65v28.82h-3.78l-17.81-24.33v24.33h-3.27V432.65h3.79l17.81,24.25V432.65Z" style="fill: rgb(255, 255, 255);"/>
  <path class="cls-5" d="M475.69,433.46a13.2,13.2,0,0,1,5.4-1.15,16.84,16.84,0,0,1,4.83.61,14.31,14.31,0,0,1,3.7,1.65,13.08,13.08,0,0,1,5.05,5.92H491.1a9.44,9.44,0,0,0-3.63-3.68,10.55,10.55,0,0,0-5.29-1.33,12.7,12.7,0,0,0-5.05.9,10,10,0,0,0-3.53,2.46,13,13,0,0,0,0,16.45,11.41,11.41,0,0,0,15.23.83,8.74,8.74,0,0,0,3.14-7H481.39v-3h13.54v15.32h-3v-5.09a12,12,0,0,1-6.88,5,16.8,16.8,0,0,1-4.24.43,12.87,12.87,0,0,1-5.25-1.15,13.07,13.07,0,0,1-4.44-3.16,16.24,16.24,0,0,1,.13-20.89A13.07,13.07,0,0,1,475.69,433.46Z" style="fill: rgb(255, 255, 255);"/>
  <path class="cls-5" d="M513.48,432.31a14,14,0,0,1,10.58,4.31,15.49,15.49,0,0,1,0,20.89,15.14,15.14,0,0,1-21.16,0,15.49,15.49,0,0,1,0-20.89A14,14,0,0,1,513.48,432.31Zm0,26.33a10.91,10.91,0,0,0,8.31-3.35,12.62,12.62,0,0,0,0-16.45,12,12,0,0,0-16.63,0,12.65,12.65,0,0,0,0,16.45A10.92,10.92,0,0,0,513.48,458.64Z" style="fill: rgb(255, 255, 255);"/>
</svg>