<?xml version="1.0" standalone="no"?>
<!DOCTYPE svg PUBLIC "-//W3C//DTD SVG 20010904//EN"
 "http://www.w3.org/TR/2001/REC-SVG-20010904/DTD/svg10.dtd">
<svg version="1.0" xmlns="http://www.w3.org/2000/svg"
 width="700.000000pt" height="700.000000pt" viewBox="0 0 700.000000 700.000000"
 preserveAspectRatio="xMidYMid meet">
<metadata>
Created by potrace 1.11, written by Peter Selinger 2001-2013
</metadata>
<g transform="translate(0.000000,700.000000) scale(0.100000,-0.100000)"
fill="#000000" stroke="none">
<path d="M3619 6998 c-3 -9 -7 -83 -13 -238 -4 -96 -9 -206 -11 -245 -2 -38
-6 -140 -10 -225 -8 -205 -15 -384 -20 -495 -2 -49 -7 -166 -10 -260 -4 -93
-8 -180 -10 -192 -5 -29 -2 -30 80 -37 248 -20 464 -79 675 -184 103 -51 297
-172 310 -193 13 -20 43 56 41 104 -3 86 23 153 82 211 166 165 440 50 440
-184 0 -126 -70 -214 -201 -253 -40 -11 -88 -34 -107 -50 l-35 -28 64 -77
c257 -311 401 -702 411 -1117 2 -60 3 -113 4 -116 1 -3 25 -5 54 -3 28 1 106
3 172 4 125 3 149 9 211 56 82 63 220 75 323 29 114 -52 190 -160 199 -286 7
-107 -42 -224 -121 -283 -76 -56 -117 -70 -212 -70 -112 -1 -164 22 -246 105
-42 43 -71 62 -115 77 -95 33 -294 83 -305 77 -5 -4 -9 -14 -9 -24 0 -25 -69
-243 -81 -256 -5 -5 -9 -16 -9 -25 0 -24 -105 -225 -166 -317 -30 -45 -84
-118 -121 -163 l-66 -81 109 -106 c60 -57 210 -202 333 -321 259 -250 448
-432 535 -516 34 -32 100 -96 148 -143 l88 -85 32 33 c208 213 422 525 581
844 90 181 218 528 252 682 79 361 98 523 99 828 1 262 -11 437 -38 582 -2 10
-11 59 -21 108 -20 106 -46 213 -75 310 -11 39 -25 84 -29 100 -29 108 -143
378 -229 545 -100 192 -268 453 -371 576 -14 17 -46 55 -71 85 -66 79 -293
306 -383 383 -400 343 -947 625 -1437 741 -126 30 -124 29 -241 49 -89 15
-117 19 -224 31 -54 6 -255 16 -256 13z"/>
<path d="M3075 6978 c-569 -75 -1054 -255 -1522 -566 -390 -259 -768 -647
-1010 -1038 -103 -166 -207 -365 -268 -514 -31 -77 -95 -249 -100 -270 -2 -8
-13 -46 -25 -84 -12 -38 -23 -76 -26 -85 -53 -214 -49 -198 -64 -281 -6 -30
-12 -64 -14 -75 -2 -12 -7 -48 -11 -80 -4 -33 -9 -69 -11 -79 -19 -105 -25
-514 -11 -705 4 -58 9 -107 11 -110 2 -3 7 -33 11 -65 18 -159 83 -438 145
-626 105 -316 274 -652 459 -910 72 -100 183 -239 193 -240 3 0 24 17 46 38
21 20 54 51 73 67 19 17 162 147 319 290 157 142 323 292 369 334 46 42 96 87
111 101 15 14 62 57 105 95 42 39 92 84 110 100 18 17 48 45 69 63 20 18 36
37 36 43 0 6 -29 54 -64 107 -146 219 -255 491 -282 702 -3 25 -7 52 -9 60 -3
8 -7 40 -10 70 -3 30 -8 64 -10 75 -2 11 -4 28 -4 38 -1 13 -7 17 -18 13 -10
-2 -49 -7 -88 -11 -165 -15 -183 -20 -228 -71 -193 -219 -541 -131 -606 155
-38 169 73 354 243 405 147 44 324 -25 398 -156 12 -21 26 -38 32 -38 22 -1
93 -13 181 -30 50 -9 91 -16 93 -15 2 1 5 13 7 26 2 13 8 51 14 84 6 33 13 75
16 94 3 19 8 37 10 41 2 3 6 18 8 31 11 59 72 223 123 329 62 129 153 270 243
377 34 40 61 78 61 85 0 7 -42 67 -94 134 -92 118 -95 120 -152 136 -71 20
-133 70 -162 130 -25 51 -24 166 0 211 46 84 125 131 219 130 156 -1 264 -142
228 -295 -11 -46 -10 -49 53 -178 l63 -132 69 52 c124 94 297 192 451 253 58
24 237 75 287 82 23 4 45 8 48 10 3 1 32 6 65 10 33 3 66 11 73 17 12 10 11
51 -3 183 -2 22 -7 67 -10 100 -3 33 -7 78 -10 100 -2 22 -9 92 -15 155 -6 63
-13 128 -15 145 -4 31 -11 103 -20 215 -3 36 -7 83 -10 105 -9 80 -15 132 -25
245 -19 199 -20 214 -27 270 -6 60 -9 90 -11 132 -2 31 2 30 -107 16z"/>
<path d="M3408 4795 c-2 -1 -34 -5 -73 -9 -185 -18 -418 -109 -595 -234 -101
-73 -238 -216 -312 -327 -119 -179 -177 -333 -213 -567 -9 -55 -9 -246 -1
-313 37 -308 196 -609 428 -813 l26 -24 38 42 c102 113 307 242 452 285 57 17
82 35 48 35 -22 0 -149 129 -180 183 -79 135 -100 307 -57 453 49 168 217 329
391 375 58 15 173 19 230 9 69 -12 81 -16 140 -43 292 -131 409 -484 257 -771
-35 -65 -123 -163 -176 -195 -24 -14 -30 -22 -20 -25 147 -52 223 -88 319
-151 70 -47 86 -60 171 -142 l55 -54 61 58 c256 245 395 572 396 928 0 355
-132 676 -382 925 -237 236 -539 366 -873 375 -69 2 -128 2 -130 0z"/>
<path d="M2079 2048 c-79 -95 -146 -175 -149 -178 -3 -3 -35 -41 -70 -85 -36
-44 -68 -82 -71 -85 -3 -3 -97 -115 -209 -250 -112 -135 -206 -247 -209 -250
-33 -28 -231 -284 -225 -290 5 -4 34 -29 64 -55 30 -26 67 -58 82 -71 15 -13
51 -40 80 -61 29 -21 55 -40 58 -43 7 -9 141 -99 225 -153 443 -281 1023 -473
1555 -515 188 -14 580 -7 720 14 274 41 458 83 670 154 69 23 130 43 135 45
45 10 78 23 144 55 42 21 112 55 156 75 159 75 347 189 535 324 47 33 93 66
103 73 9 7 17 15 17 18 0 4 -177 235 -223 290 -12 15 -407 519 -659 841 -75
97 -144 181 -151 187 -11 10 -24 5 -58 -22 -206 -157 -510 -296 -729 -332 -14
-3 -36 -7 -50 -9 -47 -10 -67 -13 -106 -19 -68 -11 -74 -15 -70 -44 3 -15 8
-52 12 -82 4 -30 8 -57 9 -60 1 -3 4 -31 9 -62 5 -41 16 -68 38 -95 43 -55 60
-100 60 -168 3 -235 -275 -353 -441 -187 -34 34 -51 62 -63 102 -30 98 -11
181 60 263 35 40 41 56 66 176 15 73 25 135 22 139 -8 7 -10 7 -102 16 -39 4
-82 9 -95 11 -13 3 -40 8 -59 11 -181 32 -457 142 -627 250 -51 32 -198 143
-235 176 -8 7 -28 26 -45 41 l-30 28 -144 -173z"/>
</g>
</svg>
