<?xml version="1.0" encoding="utf-8"?>
<svg viewBox="74.705 300.78 235.303 234.984" width="235.303px" height="234.984px" xmlns="http://www.w3.org/2000/svg">
  <defs>
    <style>.cls-1,.cls-2{fill:#d02c2f;}.cls-1{fill-rule:evenodd;}.cls-3{fill:#ffcd00;}.cls-4{fill:#00953b;}.cls-5{fill:#231f20;}</style>
  </defs>
  <path class="cls-1" d="M235.92,418.24a43.44,43.44,0,0,1-15.55,33.36,36.86,36.86,0,0,0-18.82-11.74,18.69,18.69,0,1,0-18.35,0,37,37,0,0,0-18.83,11.74,43.55,43.55,0,1,1,71.55-33.36Z"/>
  <path class="cls-2" d="M266.09,510c-3.14,2.23-6.12,4.46-9.21,6.52a105.76,105.76,0,0,1-17.34,9.35,5.23,5.23,0,0,0-.92.64l-4,1.62a6.36,6.36,0,0,0-1.09.18,117.64,117.64,0,0,1-119.88-22.72l-.73-.67,36.52-43.74q2.26,2.19,4.65,4.11a61.27,61.27,0,0,0,35.73,13.61c-.67,3.16-1.3,6.27-2,9.35-.08.36-.5.66-.8.94a8.88,8.88,0,0,0-1.72,11.16,9,9,0,0,0,10.19,3.84,8.86,8.86,0,0,0,3.67-14.57,2.39,2.39,0,0,1-.74-1.11c-.49-3.23-.91-6.45-1.33-9.57,3.15-.57,6.21-1,9.21-1.69a58.11,58.11,0,0,0,19.47-8.36q1.93-1.28,3.78-2.71c1.4-1.09,1.39-1.1,2.5.33l32.88,41.9C265.29,508.85,265.62,509.33,266.09,510Z"/>
  <path class="cls-3" d="M253,421.17a60.61,60.61,0,0,0-15.91-44.06c1.3-1.09,2.23-2.34,4.19-2.56a8.62,8.62,0,0,0,7.34-9.69,8.8,8.8,0,0,0-17.52,1.63c.12,2.06.12,2.06-1.14,4a61.38,61.38,0,0,0-36.09-13q1.19-28.44,2.37-56.71c38.05.55,82,23,102.69,67.73a117.16,117.16,0,0,1-21.48,130.78l-40.91-39.4a61.58,61.58,0,0,0,15.25-29.29l4.68,1.25c2.21.6,4.45,1.14,6.64,1.81a3.42,3.42,0,0,1,1.68,1.16,11.35,11.35,0,1,0,1.83-14.87,3.17,3.17,0,0,1-2.25.88C260.65,420.89,256.93,421,253,421.17Z"/>
  <path class="cls-4" d="M102.63,493.91c-20.06-22.46-37.5-65.65-21.94-112.52a117.2,117.2,0,0,1,100.84-80.23c.23,2.3.47,4.6.69,6.91q2.34,24,4.7,48.07c.12,1.23-.2,1.58-1.41,1.71A60.24,60.24,0,0,0,154.13,371c-.26.21-.52.4-.94.72-1.43-3-2.85-5.84-4.19-8.74-.14-.28,0-.74.15-1.08a7.94,7.94,0,0,0-2.65-8.92,8.07,8.07,0,1,0-6.14,14.33,3.12,3.12,0,0,1,1.74,1c2,2.4,3.8,4.89,5.72,7.31.37.49.48.8,0,1.29A60.82,60.82,0,0,0,132,411.75c0,.08-.06.16-.13.34-3.23-.53-6.47-1.06-9.71-1.63a11.76,11.76,0,1,0-.58,10.74c3.11-.4,6.23-.73,9.33-1.09a4.56,4.56,0,0,1,.64,0c.32,2.71.56,5.4,1,8.06A59.23,59.23,0,0,0,144,454.91c.52.69.56,1-.1,1.66q-20.43,18.45-40.8,37C103,493.67,102.79,493.79,102.63,493.91Z"/>
</svg>